<svg width="52" height="29" viewBox="0 0 52 29" fill="none" xmlns="http://www.w3.org/2000/svg">
<rect y="0.656006" width="52" height="28" rx="14" fill="#F6F5F2"/>
<rect x="2" y="2.65601" width="24" height="24" rx="12" fill="#CC8E1E"/>
<path d="M43.9782 15.6738C43.6297 16.8116 42.9314 17.8104 41.9826 18.5282C41.1495 19.1553 40.1582 19.5378 39.1199 19.6327C38.0815 19.7276 37.0373 19.5312 36.1044 19.0655C35.1715 18.5998 34.3868 17.8832 33.8385 16.9962C33.2901 16.1092 32.9998 15.0869 33 14.044C32.9963 12.8268 33.3919 11.6419 34.1262 10.6712C34.8439 9.72214 35.8425 9.02365 36.98 8.67512C37.0549 8.65203 37.1348 8.64982 37.2109 8.66872C37.2871 8.68763 37.3566 8.72693 37.4121 8.78241C37.4675 8.83789 37.5068 8.90745 37.5257 8.9836C37.5446 9.05975 37.5424 9.13961 37.5193 9.2146C37.2706 10.0375 37.2498 10.9126 37.459 11.7464C37.6682 12.5803 38.0997 13.3417 38.7075 13.9497C39.3153 14.5576 40.0766 14.9892 40.9103 15.1985C41.7439 15.4078 42.6188 15.3869 43.4415 15.1381C43.5165 15.115 43.5963 15.1128 43.6725 15.1317C43.7486 15.1506 43.8182 15.1899 43.8736 15.2454C43.9291 15.3009 43.9684 15.3704 43.9873 15.4466C44.0062 15.5227 44.004 15.6026 43.9809 15.6776L43.9782 15.6738Z" fill="#D3CFC3"/>
<path d="M13.3226 9.23665V8.33343C13.3226 8.15376 13.394 7.98146 13.521 7.85442C13.648 7.72738 13.8203 7.65601 14 7.65601C14.1797 7.65601 14.352 7.72738 14.479 7.85442C14.606 7.98146 14.6774 8.15376 14.6774 8.33343V9.23665C14.6774 9.41631 14.606 9.58862 14.479 9.71566C14.352 9.8427 14.1797 9.91407 14 9.91407C13.8203 9.91407 13.648 9.8427 13.521 9.71566C13.394 9.58862 13.3226 9.41631 13.3226 9.23665ZM17.8387 14.656C17.8387 15.4152 17.6136 16.1574 17.1918 16.7887C16.77 17.42 16.1704 17.912 15.469 18.2025C14.7676 18.4931 13.9957 18.5691 13.2511 18.421C12.5065 18.2728 11.8225 17.9072 11.2856 17.3704C10.7488 16.8335 10.3832 16.1495 10.235 15.4049C10.0869 14.6603 10.163 13.8884 10.4535 13.187C10.744 12.4856 11.2361 11.886 11.8673 11.4642C12.4986 11.0424 13.2408 10.8173 14 10.8173C15.0178 10.8183 15.9936 11.2231 16.7132 11.9428C17.4329 12.6625 17.8377 13.6382 17.8387 14.656ZM16.4839 14.656C16.4839 14.1647 16.3382 13.6845 16.0653 13.276C15.7923 12.8676 15.4044 12.5492 14.9505 12.3612C14.4967 12.1732 13.9972 12.124 13.5154 12.2199C13.0336 12.3157 12.591 12.5523 12.2436 12.8996C11.8963 13.247 11.6597 13.6896 11.5639 14.1714C11.468 14.6533 11.5172 15.1527 11.7052 15.6065C11.8932 16.0604 12.2116 16.4483 12.62 16.7213C13.0285 16.9942 13.5087 17.1399 14 17.1399C14.6585 17.1391 15.2899 16.8772 15.7555 16.4115C16.2212 15.9459 16.4831 15.3145 16.4839 14.656ZM9.68202 11.2966C9.74503 11.3596 9.81984 11.4096 9.90217 11.4437C9.9845 11.4778 10.0727 11.4953 10.1619 11.4953C10.251 11.4953 10.3392 11.4778 10.4215 11.4437C10.5039 11.4096 10.5787 11.3596 10.6417 11.2966C10.7047 11.2336 10.7547 11.1587 10.7888 11.0764C10.8229 10.9941 10.8404 10.9058 10.8404 10.8167C10.8404 10.7276 10.8229 10.6394 10.7888 10.557C10.7547 10.4747 10.7047 10.3999 10.6417 10.3369L9.96427 9.65947C9.83701 9.53221 9.66441 9.46072 9.48444 9.46072C9.30446 9.46072 9.13186 9.53221 9.0046 9.65947C8.87734 9.78673 8.80584 9.95934 8.80584 10.1393C8.80584 10.3193 8.87734 10.4919 9.0046 10.6192L9.68202 11.2966ZM9.68202 18.0143L9.0046 18.6917C8.94158 18.7547 8.8916 18.8296 8.8575 18.9119C8.82339 18.9942 8.80584 19.0825 8.80584 19.1716C8.80584 19.2607 8.82339 19.3489 8.8575 19.4313C8.8916 19.5136 8.94158 19.5884 9.0046 19.6514C9.13186 19.7787 9.30446 19.8502 9.48444 19.8502C9.57355 19.8502 9.66179 19.8326 9.74412 19.7985C9.82645 19.7644 9.90126 19.7144 9.96427 19.6514L10.6417 18.974C10.769 18.8467 10.8404 18.6741 10.8404 18.4942C10.8404 18.3142 10.769 18.1416 10.6417 18.0143C10.5144 17.8871 10.3418 17.8156 10.1619 17.8156C9.98188 17.8156 9.80928 17.8871 9.68202 18.0143ZM17.8387 11.4947C17.9277 11.4948 18.0158 11.4773 18.0981 11.4433C18.1803 11.4093 18.255 11.3595 18.318 11.2966L18.9954 10.6192C19.0584 10.5561 19.1084 10.4813 19.1425 10.399C19.1766 10.3167 19.1942 10.2284 19.1942 10.1393C19.1942 10.0502 19.1766 9.96196 19.1425 9.87963C19.1084 9.79729 19.0584 9.72249 18.9954 9.65947C18.9324 9.59646 18.8576 9.54648 18.7753 9.51237C18.6929 9.47827 18.6047 9.46072 18.5156 9.46072C18.4264 9.46072 18.3382 9.47827 18.2559 9.51237C18.1735 9.54648 18.0987 9.59646 18.0357 9.65947L17.3583 10.3369C17.263 10.4316 17.198 10.5526 17.1717 10.6844C17.1453 10.8161 17.1587 10.9528 17.2102 11.0769C17.2617 11.201 17.349 11.307 17.4609 11.3814C17.5728 11.4558 17.7043 11.4953 17.8387 11.4947ZM18.318 18.0154C18.1907 17.8882 18.0181 17.8167 17.8381 17.8167C17.6582 17.8167 17.4856 17.8882 17.3583 18.0154C17.231 18.1427 17.1595 18.3153 17.1595 18.4953C17.1595 18.6753 17.231 18.8479 17.3583 18.9751L18.0357 19.6525C18.163 19.7798 18.3356 19.8513 18.5156 19.8513C18.6955 19.8513 18.8681 19.7798 18.9954 19.6525C19.1227 19.5253 19.1942 19.3527 19.1942 19.1727C19.1942 18.9927 19.1227 18.8201 18.9954 18.6929L18.318 18.0154ZM9.25806 14.656C9.25806 14.4763 9.18669 14.304 9.05965 14.177C8.93261 14.05 8.76031 13.9786 8.58065 13.9786H7.67742C7.49776 13.9786 7.32545 14.05 7.19841 14.177C7.07137 14.304 7 14.4763 7 14.656C7 14.8357 7.07137 15.008 7.19841 15.135C7.32545 15.2621 7.49776 15.3334 7.67742 15.3334H8.58065C8.76031 15.3334 8.93261 15.2621 9.05965 15.135C9.18669 15.008 9.25806 14.8357 9.25806 14.656ZM14 19.3979C13.8203 19.3979 13.648 19.4693 13.521 19.5964C13.394 19.7234 13.3226 19.8957 13.3226 20.0754V20.9786C13.3226 21.1582 13.394 21.3306 13.521 21.4576C13.648 21.5846 13.8203 21.656 14 21.656C14.1797 21.656 14.352 21.5846 14.479 21.4576C14.606 21.3306 14.6774 21.1582 14.6774 20.9786V20.0754C14.6774 19.8957 14.606 19.7234 14.479 19.5964C14.352 19.4693 14.1797 19.3979 14 19.3979ZM20.3226 13.9786H19.4194C19.2397 13.9786 19.0674 14.05 18.9403 14.177C18.8133 14.304 18.7419 14.4763 18.7419 14.656C18.7419 14.8357 18.8133 15.008 18.9403 15.135C19.0674 15.2621 19.2397 15.3334 19.4194 15.3334H20.3226C20.5022 15.3334 20.6745 15.2621 20.8016 15.135C20.9286 15.008 21 14.8357 21 14.656C21 14.4763 20.9286 14.304 20.8016 14.177C20.6745 14.05 20.5022 13.9786 20.3226 13.9786Z" fill="white"/>
</svg>
