<svg width="25" height="25" viewBox="0 0 25 25" fill="none" xmlns="http://www.w3.org/2000/svg">
<path d="M13.2413 2.63428C14.3663 2.63728 14.9373 2.64328 15.4303 2.65728L15.6243 2.66428C15.8483 2.67228 16.0693 2.68228 16.3363 2.69428C17.4003 2.74428 18.1263 2.91228 18.7633 3.15928C19.4233 3.41328 19.9793 3.75728 20.5353 4.31228C21.0438 4.81217 21.4372 5.41687 21.6883 6.08428C21.9353 6.72128 22.1033 7.44728 22.1533 8.51228C22.1653 8.77828 22.1753 8.99928 22.1833 9.22428L22.1893 9.41828C22.2043 9.91028 22.2103 10.4813 22.2123 11.6063L22.2133 12.3523V13.6623C22.2157 14.3917 22.2081 15.1211 22.1903 15.8503L22.1843 16.0443C22.1763 16.2693 22.1663 16.4903 22.1543 16.7563C22.1043 17.8213 21.9343 18.5463 21.6883 19.1843C21.438 19.8521 21.0444 20.4569 20.5353 20.9563C20.0352 21.4646 19.4306 21.858 18.7633 22.1093C18.1263 22.3563 17.4003 22.5243 16.3363 22.5743C16.099 22.5855 15.8617 22.5954 15.6243 22.6043L15.4303 22.6103C14.9373 22.6243 14.3663 22.6313 13.2413 22.6333L12.4953 22.6343H11.1863C10.4565 22.6368 9.72681 22.6291 8.99728 22.6113L8.80328 22.6053C8.56589 22.5963 8.32856 22.586 8.09128 22.5743C7.02728 22.5243 6.30128 22.3563 5.66328 22.1093C4.99595 21.8587 4.3915 21.4651 3.89228 20.9563C3.38333 20.4566 2.98951 19.8518 2.73828 19.1843C2.49128 18.5473 2.32328 17.8213 2.27328 16.7563C2.26214 16.519 2.25214 16.2817 2.24328 16.0443L2.23828 15.8503C2.21986 15.1211 2.21152 14.3917 2.21328 13.6623V11.6063C2.21049 10.8769 2.21783 10.1475 2.23528 9.41828L2.24228 9.22428C2.25028 8.99928 2.26028 8.77828 2.27228 8.51228C2.32228 7.44728 2.49028 6.72228 2.73728 6.08428C2.9884 5.41618 3.383 4.8113 3.89328 4.31228C4.39238 3.80375 4.99643 3.41026 5.66328 3.15928C6.30128 2.91228 7.02628 2.74428 8.09128 2.69428C8.35728 2.68228 8.57928 2.67228 8.80328 2.66428L8.99728 2.65828C9.72648 2.64051 10.4559 2.63284 11.1853 2.63528L13.2413 2.63428ZM12.2133 7.63428C10.8872 7.63428 9.61543 8.16106 8.67775 9.09874C7.74007 10.0364 7.21328 11.3082 7.21328 12.6343C7.21328 13.9604 7.74007 15.2321 8.67775 16.1698C9.61543 17.1075 10.8872 17.6343 12.2133 17.6343C13.5394 17.6343 14.8111 17.1075 15.7488 16.1698C16.6865 15.2321 17.2133 13.9604 17.2133 12.6343C17.2133 11.3082 16.6865 10.0364 15.7488 9.09874C14.8111 8.16106 13.5394 7.63428 12.2133 7.63428ZM12.2133 9.63428C12.6073 9.63421 12.9974 9.71174 13.3614 9.86245C13.7254 10.0132 14.0561 10.2341 14.3348 10.5126C14.6134 10.7911 14.8344 11.1218 14.9852 11.4858C15.1361 11.8497 15.2137 12.2398 15.2138 12.6338C15.2139 13.0277 15.1363 13.4179 14.9856 13.7819C14.8349 14.1459 14.614 14.4766 14.3355 14.7552C14.0569 15.0339 13.7262 15.2549 13.3623 15.4057C12.9983 15.5565 12.6083 15.6342 12.2143 15.6343C11.4186 15.6343 10.6556 15.3182 10.093 14.7556C9.53035 14.193 9.21428 13.4299 9.21428 12.6343C9.21428 11.8386 9.53035 11.0756 10.093 10.513C10.6556 9.95035 11.4186 9.63428 12.2143 9.63428M17.4643 6.13428C17.1328 6.13428 16.8148 6.26597 16.5804 6.50039C16.346 6.73481 16.2143 7.05276 16.2143 7.38428C16.2143 7.7158 16.346 8.03374 16.5804 8.26816C16.8148 8.50258 17.1328 8.63428 17.4643 8.63428C17.7958 8.63428 18.1137 8.50258 18.3482 8.26816C18.5826 8.03374 18.7143 7.7158 18.7143 7.38428C18.7143 7.05276 18.5826 6.73481 18.3482 6.50039C18.1137 6.26597 17.7958 6.13428 17.4643 6.13428Z" fill="#CC8E1E"/>
</svg>
