<svg width="25" height="25" viewBox="0 0 25 25" fill="none" xmlns="http://www.w3.org/2000/svg">
<path d="M19.2137 3.63428C19.7441 3.63428 20.2528 3.84499 20.6279 4.22006C21.003 4.59514 21.2137 5.10384 21.2137 5.63428V19.6343C21.2137 20.1647 21.003 20.6734 20.6279 21.0485C20.2528 21.4236 19.7441 21.6343 19.2137 21.6343H5.21368C4.68325 21.6343 4.17454 21.4236 3.79947 21.0485C3.4244 20.6734 3.21368 20.1647 3.21368 19.6343V5.63428C3.21368 5.10384 3.4244 4.59514 3.79947 4.22006C4.17454 3.84499 4.68325 3.63428 5.21368 3.63428H19.2137ZM18.7137 19.1343V13.8343C18.7137 12.9697 18.3702 12.1405 17.7589 11.5291C17.1475 10.9177 16.3183 10.5743 15.4537 10.5743C14.6037 10.5743 13.6137 11.0943 13.1337 11.8743V10.7643H10.3437V19.1343H13.1337V14.2043C13.1337 13.4343 13.7537 12.8043 14.5237 12.8043C14.895 12.8043 15.2511 12.9518 15.5136 13.2143C15.7762 13.4769 15.9237 13.833 15.9237 14.2043V19.1343H18.7137ZM7.09368 9.19428C7.53925 9.19428 7.96656 9.01728 8.28162 8.70222C8.59668 8.38716 8.77368 7.95984 8.77368 7.51428C8.77368 6.58428 8.02368 5.82428 7.09368 5.82428C6.64547 5.82428 6.21561 6.00233 5.89867 6.31927C5.58174 6.6362 5.40368 7.06606 5.40368 7.51428C5.40368 8.44428 6.16368 9.19428 7.09368 9.19428ZM8.48368 19.1343V10.7643H5.71368V19.1343H8.48368Z" fill="#CC8E1E"/>
</svg>
