<svg width="40" height="41" viewBox="0 0 40 41" fill="none" xmlns="http://www.w3.org/2000/svg">
<rect y="0.656006" width="40" height="40" rx="20" fill="#CC8E1E" fill-opacity="0.1"/>
<path d="M20 20.656C21.1603 20.656 22.2731 20.2082 23.0936 19.4112C23.9141 18.6142 24.375 17.5332 24.375 16.406C24.375 15.2788 23.9141 14.1978 23.0936 13.4008C22.2731 12.6038 21.1603 12.156 20 12.156C18.8397 12.156 17.7269 12.6038 16.9064 13.4008C16.0859 14.1978 15.625 15.2788 15.625 16.406C15.625 17.5332 16.0859 18.6142 16.9064 19.4112C17.7269 20.2082 18.8397 20.656 20 20.656ZM14.6875 21.8703C14.1073 21.8703 13.5509 22.0942 13.1407 22.4927C12.7305 22.8912 12.5 23.4317 12.5 23.9953V24.2989C12.5 25.7518 13.4519 26.9806 14.8031 27.816C16.1619 28.6563 18.0013 29.156 20 29.156C21.9987 29.156 23.8375 28.6563 25.1969 27.816C26.5481 26.9806 27.5 25.7518 27.5 24.2989V23.9953C27.5 23.4317 27.2695 22.8912 26.8593 22.4927C26.4491 22.0942 25.8927 21.8703 25.3125 21.8703H14.6875Z" fill="#CC8E1E"/>
</svg>
