<svg width="25" height="25" viewBox="0 0 25 25" fill="none" xmlns="http://www.w3.org/2000/svg">
<path d="M10.2137 15.6343L15.4037 12.6343L10.2137 9.63428V15.6343ZM21.7737 7.80428C21.9037 8.27428 21.9937 8.90428 22.0537 9.70428C22.1237 10.5043 22.1537 11.1943 22.1537 11.7943L22.2137 12.6343C22.2137 14.8243 22.0537 16.4343 21.7737 17.4643C21.5237 18.3643 20.9437 18.9443 20.0437 19.1943C19.5737 19.3243 18.7137 19.4143 17.3937 19.4743C16.0937 19.5443 14.9037 19.5743 13.8037 19.5743L12.2137 19.6343C8.02368 19.6343 5.41368 19.4743 4.38368 19.1943C3.48368 18.9443 2.90368 18.3643 2.65368 17.4643C2.52368 16.9943 2.43368 16.3643 2.37368 15.5643C2.30368 14.7643 2.27368 14.0743 2.27368 13.4743L2.21368 12.6343C2.21368 10.4443 2.37368 8.83428 2.65368 7.80428C2.90368 6.90428 3.48368 6.32428 4.38368 6.07428C4.85368 5.94428 5.71368 5.85428 7.03368 5.79428C8.33368 5.72428 9.52368 5.69428 10.6237 5.69428L12.2137 5.63428C16.4037 5.63428 19.0137 5.79428 20.0437 6.07428C20.9437 6.32428 21.5237 6.90428 21.7737 7.80428Z" fill="#CC8E1E"/>
</svg>
