<svg width="387" height="369" fill="none" xmlns="http://www.w3.org/2000/svg"><path d="m189.796 355.53 18.532 12.397s3.02 2.129 5.353-1.002c2.334-3.13 2.334-7.137 10.021-7.137l3.569-.251s2.609-1.628 5.217-1.628l-2.746-3.506 8.511-6.512-.824-1.753 6.452-5.636s5.766 1.503 8.923-6.887c0 0 .686-3.882 3.569-4.133 0 0 1.647 1.127 2.334 4.008 0 0 2.608 3.757 2.882-3.006l.824-3.13 1.922-2.255 2.059-2.128v-1.879l5.353-3.506v-2.38l3.295-3.506s4.393 1.252 3.569-2.63c-.824-3.882.102-2.003.102-2.003l1.542-.454 4.393 4.711 2.883-.125 10.021-1.628-2.197-2.003-.549-3.006 3.844-2.254v-2.254l11.668-3.256.824 1.252 23.748-2.755 8.922-5.259 9.06-4.509 12.766 7.89-.686 2.254 7.276 5.51 6.863-7.514-7.962-6.011 2.471-4.884h2.334l1.922-7.764 2.059-1.377h2.745v-1.002h3.432v-.877s1.235-.751 0-.876-2.471-.626-2.471-.626-.549-.126-.549-.877-.824-2.129-.824-2.129l.549-1.377h1.648l1.098 2.129 1.098-.251-.549-1.878-.137-1.253-1.785-.751-7.413-10.018 4.393-5.009-22.787-13.775v-.877l1.785-1.753v-1.628l3.02-2.379 4.255-2.38-1.922-1.753-.274-3.506 3.02-3.006 4.118-1.628h4.804v-.876l-10.844-17.282.549-11.771 3.844-5.635-.138-3.507h-1.51l-3.432 2.505-4.804.626-3.295-.376-.549-1.377-1.098-10.77 13.727-.876.549-.877.55-9.142h-1.922l-1.922-12.773-53.948 9.142-9.513-1.127-1.057-.126 1.922-1.127 2.059-2.629v-9.518l-2.745-3.631-1.648-.877-8.648-9.392.687-1.378 1.372-15.027-2.745-3.005h-2.059l-5.354 7.388-1.372.751-1.785.627-1.785 1.252s-1.372.501-1.51 1.127c-.137.626-2.745 2.004-2.745 2.004l-1.235 2.003-.961 1.002-36.652 7.013-3.157.125-5.903-16.78-3.432.25-.686-4.007-7.275-10.019-3.02-8.39 1.51-1.252-6.727-24.795 10.159-2.88-2.609-10.27.824-1.627-1.51-2.254-.686-4.133h-2.197l-1.235-8.39 4.53-.626-3.569-13.274-3.02-.877-2.471-6.136.137-3.882-2.608-7.89-6.726 2.004-4.453.25v3.507l-6.941.25-3.706 1.503-1.098-1.753-.961-1.002h-3.02s-2.059 1.879-2.883 2.004c-.824.125-3.157.376-3.157.376l-5.354.5-2.333-1.502V6.019l-1.373-1.252-2.608 2.755-1.236 6.637-2.196 2.129h-2.883l-6.452-.125-2.196-1.378v-4.759l-2.745-3.756-5.628.626-1.785 2.254h-2.334l-2.196-1.503-12.492 4.884-6.863.25L106.061.634H95.353l-1.921 1.753-7.962.25-3.57 6.638-3.294-2.38-.823.752 3.02 5.51-1.099.626-3.294-1.878-2.471 2.129-3.02-2.255-3.295.627-.823 2.63-4.667 3.38-2.06.627 4.393 9.392s6.727 8.265 4.942 18.784c-1.785 10.52-2.608 8.64-2.608 8.64s-1.51 1.002-1.098 4.509l-7.413 3.381-3.57-2.88-.823 1.377-1.647.877-1.098-1.378L41.542 64s-4.117 2.63-5.627 10.393l-.687.627-7.687-.627-3.706-1.502v1.001s4.804 5.51 2.883 8.516l-2.883 10.394s-1.236 1.878 0 3.631l-.55 23.543 4.53.752-2.333 20.788-13.315 19.535 26.081 4.884s2.197 11.897-2.745 20.036l-8.236-.125s-5.903 3.757-7.276 4.258c-1.372.501.137 4.633.137 4.633l1.922 1.628-.412 10.144-1.921.876-2.06 9.643S2.817 217.904.5 227.672c0 0-.824 3.757 4.53 13.274l.137 5.009.823-.125 8.511-3.381.138 10.895 28.003.501 1.373-2.129 8.51-.501 1.785-2.379 3.157.25.824.877-2.608 7.263 3.98 1.252 3.158 2.63-.412 8.14h2.06l2.47 3.256.824 1.377-.138 2.755 5.354 2.004.275 1.628 5.49 3.506 5.629 2.505 6.726 2.88 3.569.376.275 4.508 7.275 6.261 7.824 4.133 4.53 1.377 6.452 4.383 2.471 2.755-5.079 9.142v6.136l2.883 5.26 5.353.751-2.471 3.506-.961 2.38 1.922 4.508-2.745 5.635 2.333 1.753-2.059 6.387 2.746.877-.412 2.254 4.667.501 24.16-.627.549-3.255 15.649-.251v-1.628l5.491-5.76.412-1.253 1.647-.751 7.001 5.886 5.216 1.127Z" fill="#CC8E1E"/></svg>