<svg width="52" height="29" fill="none" xmlns="http://www.w3.org/2000/svg"><rect y=".656" width="52" height="28" rx="14" fill="#F6F5F2"/><rect x="2" y="2.656" width="24" height="24" rx="12" fill="#CC8E1E"/><path d="M43.978 15.674A5.609 5.609 0 0 1 33 14.044a5.563 5.563 0 0 1 1.126-3.373 5.655 5.655 0 0 1 2.854-1.996.431.431 0 0 1 .54.54 4.753 4.753 0 0 0 3.39 5.983 4.75 4.75 0 0 0 2.532-.06.432.432 0 0 1 .539.54l-.003-.004Z" fill="#D3CFC3"/><path d="M13.323 9.237v-.904a.678.678 0 0 1 1.354 0v.904a.678.678 0 0 1-1.354 0Zm4.516 5.419a3.839 3.839 0 1 1-7.678 0 3.839 3.839 0 0 1 7.678 0Zm-1.355 0a2.484 2.484 0 1 0-4.969 0 2.484 2.484 0 0 0 4.969 0Zm-6.802-3.36a.679.679 0 0 0 .96-.96l-.678-.677a.679.679 0 1 0-.96.96l.678.678Zm0 6.718-.677.678a.679.679 0 0 0 .96.96l.677-.678a.678.678 0 0 0-.96-.96Zm8.157-6.52a.677.677 0 0 0 .479-.197l.677-.678a.68.68 0 0 0-.48-1.158.678.678 0 0 0-.48.198l-.677.678a.677.677 0 0 0 .48 1.158Zm.479 6.521a.679.679 0 0 0-.96.96l.678.677a.679.679 0 1 0 .96-.96l-.678-.677Zm-9.06-3.359a.677.677 0 0 0-.677-.677h-.904a.678.678 0 0 0 0 1.354h.904a.677.677 0 0 0 .677-.677ZM14 19.398a.677.677 0 0 0-.677.677v.904a.678.678 0 0 0 1.354 0v-.904a.677.677 0 0 0-.677-.677Zm6.323-5.42h-.904a.678.678 0 0 0 0 1.355h.904a.677.677 0 1 0 0-1.354Z" fill="#fff"/></svg>