<svg width="25" height="25" fill="none" xmlns="http://www.w3.org/2000/svg"><path d="M13.241 2.634c1.125.003 1.696.01 2.19.023l.193.007c.224.008.445.018.712.03 1.064.05 1.79.218 2.427.465.66.254 1.216.598 1.772 1.153.509.5.902 1.105 1.153 1.772.247.637.415 1.363.465 2.428.012.266.022.487.03.712l.006.194c.015.492.021 1.063.023 2.188l.001.746v1.31c.003.73-.005 1.46-.023 2.188l-.006.194c-.008.225-.018.446-.03.712-.05 1.065-.22 1.79-.466 2.428a4.883 4.883 0 0 1-1.153 1.772c-.5.509-1.104.902-1.772 1.153-.637.247-1.363.415-2.427.465-.237.011-.474.021-.712.03l-.194.006c-.493.014-1.064.021-2.189.023l-.746.001h-1.309a78.69 78.69 0 0 1-2.189-.023l-.194-.006-.712-.03c-1.064-.05-1.79-.219-2.428-.466a4.89 4.89 0 0 1-1.77-1.153 4.905 4.905 0 0 1-1.155-1.772c-.247-.637-.415-1.363-.465-2.428a74.175 74.175 0 0 1-.03-.712l-.005-.194a79.088 79.088 0 0 1-.025-2.188v-2.056c-.003-.73.005-1.458.022-2.188l.007-.194c.008-.225.018-.446.03-.712.05-1.065.218-1.79.465-2.428a4.88 4.88 0 0 1 1.156-1.772 4.897 4.897 0 0 1 1.77-1.153c.638-.247 1.363-.415 2.428-.465.266-.012.488-.022.712-.03l.194-.006a78.97 78.97 0 0 1 2.188-.023h2.056Zm-1.028 5a5 5 0 1 0 0 10 5 5 0 0 0 0-10Zm0 2a3 3 0 1 1 0 6 3 3 0 0 1 .001-6m5.25-3.5a1.25 1.25 0 1 0 0 2.5 1.25 1.25 0 0 0 0-2.5Z" fill="#CC8E1E"/></svg>