<svg width="67" height="64" fill="none" xmlns="http://www.w3.org/2000/svg"><path d="M65.037 27.557c-2.39-2.263-6.264-2.263-8.653 0H43.861l8.855-8.39c3.38 0 6.119-2.595 6.119-5.796s-2.74-5.797-6.119-5.797c-3.38 0-6.119 2.596-6.119 5.797l-8.855 8.39V9.896c2.39-2.264 2.39-5.934 0-8.198-2.39-2.264-6.264-2.264-8.654 0-2.39 2.264-2.39 5.934 0 8.198V21.76l-8.855-8.39c0-3.2-2.74-5.796-6.119-5.796-3.38 0-6.119 2.596-6.119 5.797 0 3.202 2.74 5.797 6.119 5.797l8.855 8.389H10.447c-2.39-2.264-6.264-2.263-8.654 0-2.39 2.264-2.39 5.934 0 8.198 2.39 2.264 6.264 2.264 8.654 0h12.523l-8.855 8.39c-3.38 0-6.119 2.594-6.119 5.796 0 3.202 2.74 5.797 6.119 5.797 3.38 0 6.119-2.595 6.119-5.797l8.855-8.39v11.865c-2.39 2.264-2.39 5.934 0 8.198 2.39 2.264 6.264 2.264 8.654 0 2.39-2.264 2.39-5.934 0-8.198V41.552l8.855 8.39c0 3.2 2.74 5.796 6.119 5.796 3.38 0 6.119-2.595 6.119-5.797 0-3.202-2.74-5.797-6.119-5.797l-8.856-8.39h12.524c2.39 2.265 6.264 2.265 8.653 0 2.39-2.263 2.39-5.933 0-8.197Z" fill="#FFB13B"/></svg>