<svg width="120" height="123" fill="none" xmlns="http://www.w3.org/2000/svg"><path fill-rule="evenodd" clip-rule="evenodd" d="M69.662 11.997c-.072 1.496.463 3.168 1.495 4.677.7 1.025 1.148.29 1.155-.215.024-1.123.663-1.402 1.592-1.612 2.374-.538 3.631-2.362 3.398-4.708-.167-1.701.136-1.172 1.575-1 2.146.264 4.148-.026 5.876-1.551.542-.484.505-.818-.101-1.168-2.41-1.4-4.907-2.535-7.682-2.83-2.123-.225-3.909.48-5.352 2.153-1.435 1.67-1.942 3.677-1.958 6.253h.002Zm-6.695 2.37c-.988-.013-1.979-.005-2.97-.005v-.006c-.956 0-1.918-.011-2.873.007-.351.008-.863-.106-.91.42-.066.65.533.565.877.575 1.977.054 3.956.064 5.935.06.336 0 .841.072.801-.534-.037-.53-.489-.513-.86-.517Zm-6.12-1.036 6.342-.004c.532.01.936-.185 1.312-.593 3.008-3.25 2.205-9.295-1.579-11.778-2.511-1.65-5.385-1.132-7.242 1.306-2.144 2.808-2.243 7.386-.25 10.31.364.53.798.774 1.416.76Zm1.446 50.57c.026 1.575.758 2.181 2.241 1.851.738-.164 1.121-.534 1.098-1.4-.041-1.861-.01-3.723-.01-5.586h.183c0-4.098.31-4.258-2.354-4.103-1.127.066-1.342.276-1.322 1.5.041 2.58.118 5.159.164 7.739Zm.285 16.927c.037 1.665.238 1.794 1.835 1.714.749-.037 1.052-.362 1.028-1.153-.036-1.14-.01-2.283-.01-3.429h.058c0-1.043-.029-2.088.004-3.132.037-1.225-.255-1.594-1.407-1.646-1.035-.048-1.536.436-1.541 1.573-.016 2.025-.019 4.05.032 6.073Zm.29 11.259c-.016 1.476 2.2 1.633 2.287.183.057-1.01.05-2.025.052-3.04 0-.361-.18-.594-.535-.7-1.87-.558-1.816.774-1.816 2.082h.015l-.002 1.475ZM60 102.066c1.14-.044 1.558-3.127.029-3.163-.727-.018-.984.741-.977 1.611-.007.748.455 1.573.948 1.552Zm-.901 7.983c.038 1.226 1.772 1.33 1.772-.088-.003-.263 0-.527 0-.782h.01c0-.868.165-2.013-.834-2.096-1.204-.099-.981 1.88-.948 2.966Zm.33 6.138c-.005 1.73-.007 3.46.001 5.191.006 1.236 1.204 1.174 1.232.027.027-.883.01-1.765.01-2.645h.02c0-.85.003-1.698 0-2.548-.001-.488-.089-.988-.665-.968-.509.018-.597.493-.599.943Zm-.821-1.253c.2-.292.457-.594-.029-.872-1.152-.654-1.888 1.776-.889 3.586.13.235.246.633.59.467.744-.364-.895-1.376.328-3.181Zm2.816-1.71c-.823-.719-1.807-1.145-2.737-1.67-1.39-.785-1.782-2.469-.91-3.851.419-.656 1.029-.999.75-1.446-.524-.84-1.593-.907-2.18-.129-1.256 1.67-.858 4.28.94 5.754.805.66 1.712 1.187 2.57 1.77 1.317.888 2.567 1.807 1.79 3.614-.058.401-.112.672.157.76.714.231 1.895-2.814-.38-4.802Zm-2.952-14.13c.909-1.312-.295-1.413-1.06-2.005-.832-.642-1.383.438-1.68 1.186-.966 2.447-.206 4.725 2.154 6.295 1.023.679 2.156 1.176 3.156 1.88 1.85 1.301 2.046 3.094.61 4.854-.573.696.373.884.414.882.295-.06.573-.267.834-.497 2.136-1.887 1.77-5.495-.744-7.078-.747-.468-1.57-.798-2.337-1.231-1.78-1.009-2.386-2.79-1.347-4.286Zm5.307-1.814c-2.33-3.022-4.369-2.58-6.416-4.393-1.23-1.09-1.448-1.843-.977-3.451.489-1.677-.14-1.176-1.422-1.756-.449-.202-.683-.027-.859.424-.986 2.53.09 5.828 2.364 7.187 1.22.726 2.46 1.41 3.657 2.174 2.072 1.325 2.35 2.461 1.23 4.709-.141.286-.387.635-.018.862.476.293 1.016.475 1.437.665 1.117.198 2.857-4.019 1.005-6.421h-.001ZM60.43 83.576c-.465-.025-.93-.003-1.397-.033-5.656-.373-6.464-6.681-3.305-9.45.813-.713 1.857-.973 1.776-1.438-.06-.35-.427-.347-.688-.405-1.552-.347-3.056-.86-4.536-1.475-.467-.196-.868-.287-1.192.123-.615.777-1.341 1.484-1.651 2.47-1.036 3.326-1.214 6.522 1.185 9.401 2.008 2.406 4.238 4.302 7.434 4.548 2.7.207 5.926-.46 5.658 3.447-.176 2.55-2.2 2.441-2.021 3.278.122.581 1.881 1.372 2.345 1.036.933-.675 1.676-1.5 2.119-2.654 1.737-4.516-2.047-8.65-5.727-8.848Zm-7.734-29.703c-2.05-.163-4.114-.323-6.054-1.043-1.074-.398-1.677-.04-2.295.795-2.501 3.379-2.16 8.322.714 11.537 2.473 2.757 5.597 4.18 8.958 5.175 2.306.68 4.63 1.284 6.94 1.944a9.587 9.587 0 0 1 3.627 1.955c2.667 2.276 2.363 6.624-.58 8.252-1.642.909.87 1.601 2.006 3.123.087.117.242.18.388.283.261-.173.516-.304.73-.484 1.098-.926 1.988-2.052 2.899-3.175 2.597-3.198 1.947-10.45-2.724-12.821-4.424-2.244-8.504-2.482-12.467-3.997-2.005-.766-3.607-2-4.496-4.14-.35-.839-.378-1.61-.093-2.46 1.363-4.067 3.746-3.865 3.69-4.538-.033-.4-.794-.37-1.243-.406Zm-3.07-19.101c-1.22.737-2.476 1.172-3.867 1.307-.988.096-1.965.32-2.94.52-1.739.355-2.988 1.395-3.763 3.068-.911 1.966-.63 3.89.237 5.765 1.617 3.513 4.314 5.648 7.893 6.436 4.57 1.003 9.223 1.4 13.871 1.776 4.196.338 8.326.569 8.996 5.969.453 3.653-3.507 5.566-6.088 6.29-.282.08-.72.085-.743.472-.035.5.461.472.75.547 5.032 1.306 4.154 2.81 5.72 2.077 4.07-1.905 7.733-5.304 7.77-10.722-.04-2.156-.926-4.058-2.613-5.566-2.401-2.15-5.254-3.215-8.3-3.743-3.694-.64-7.414-.833-11.155-.77-1.773.03-3.54-.085-5.29-.418-1.965-.374-3.65-1.298-4.975-2.876-1.888-2.246-1.671-4.88.614-5.058 4.341-.34 6.226 1.667 9.067-.509.795-.608.967-1.557.59-2.46-.745-1.757-4.188-3.067-5.774-2.105Zm2.178 1.93c-1.439 0-1.439-.94 0-.94 1.438 0 1.438.94 0 .94Zm-1.095-4.84c-1.875.65-2.53-1.564-3.783-.069-.719.853-1.446 1.703-2.16 2.556l-.263.584c.23.55 2.83-.021 3.664-.659 1.497-1.146 2.32-.192 3.065-1.578.456-.849-.172-.956-.523-.834Zm-.522-1.308c1.986.02 4.826-3.518 3.612-4.123-.906-.453-.948 1.761-3.848 3.928.147.123.193.195.236.195Zm4.837-2.61c-1.387 2.9-2.76 2.932-2.57 3.475l.663.102c2.118-1.27 2.683-3.066 2.842-3.247.254-.567-.59-1.051-.935-.33Zm-8.305 1.45c.133.452.683.46.848.398 2.042-.754 3.594-2.133 4.661-4.106.32-.585-.613-1.446-1.146-.778l-4.013 3.76c-.24.152-.454.38-.35.726Zm-5.143.962c-2.575 2.383-5.61 3.968-8.623 5.598-.696.377-.702.8-.04 1.3.829.628 1.797.674 2.683.676 1.008.107 1.882-.088 2.712-.5 2.983-1.488 5.282-3.871 7.481-6.383.405-.462.043-1.576-.754-1.284-1.692.622-2.894.072-3.459.593Zm-7.417-2.584c-2.76 1.86-5.678 3.375-8.855 4.268-.793.22-.874.674-.648 1.384.649 2.044 3.02 2.483 5.077 1.993 3.264-.777 6.119-2.47 8.84-4.446.506-.368 1.138-.66 1.381-1.273.198-.49-.48-.822-.478-1.314.008-1.556-1.25-.896-1.882-1.25-1.313-.74-2.363-.082-3.434.639l-.001-.001Zm-3.466-4.012c-3.928 1.853-8.045 3.068-12.234 4.053-.98.23-1.073.58-.36 1.344 1.297 1.393 3.746 1.925 5.366 1.6 4.22-.835 8.006-2.73 11.513-5.29.141-.103.38-.191.315-.426-.17-.615-1.332.258-3.634-1.213-.318-.203-.62-.23-.966-.068Zm-5.547-3.204c-2.87.77-5.816.996-8.753 1.299-2.11.216-4.222.112-6.332.281-.714.058-.916.312-.54 1.053 1.218 2.402 3.127 3.445 5.722 3.328 4.368-.014 10.106-2.057 14.092-3.927 1.041-.488.878-1.396-.206-1.512-1.936-.209-2.078-1.032-3.983-.522Zm-.705-1.5c-.83-.784-1.13-2.096-2.447-2.424-3.438-.856-2.84-3.125-4.373-2.982-4.64.435-9.279.88-13.933 1.139a46.4 46.4 0 0 0-2.786.222c-.975.11-1.08.336-.691 1.258.292.694.712 1.297 1.194 1.862 2 2.323 4.639 2.888 7.056 3.012 6.687-.263 9.246-.31 15.47-1.565.24-.048.861-.19.51-.521v-.002Zm-.255-3.726c4.643-.195 8.688-2.28 12.686-4.493 1.256-.694-.998-.76-2.976-2.538-.462-.414-.891-.452-1.45-.23a208.75 208.75 0 0 1-12.171 4.388c-.346.112-.841.133-.924.555-.121.61.689 1.076.691 1.076 1.239.912 2.623 1.334 4.144 1.242Zm7.72 3.773c3.03-1.058 5.782-2.678 8.453-4.496 1.044-.71 1.792-1.28 1.348-2.83-.617-2.163-1.395-1.117-3.003-.21-4.338 2.447-8.77 4.639-13.718 5.347-.478.066-.87.184-.253.845 1.982 2.144 4.557 2.258 7.174 1.344Zm14.127-2.138c-3.02 3.065-5.492 5.163-9.237 7.235-.265.147-.636.25-.637.639-.002.447.352.665.686.848 1.096.603 3.12.17 4.181-.243 2.342-.914 3.894-2.812 5.53-4.669 1.055-1.198 1.083-2.28.413-3.607-.282-.565-.477-.67-.936-.203Zm-1.365-.897a11.08 11.08 0 0 0-1.615-1.3c-.38-.25-.701.122-1.003.325-4.069 2.73-5.963 4.02-10.477 5.668-.724.263-.722.702-.312 1.257 1.426 1.946 4.105 1.419 5.882.389 2.684-1.556 5.01-3.616 7.251-5.79.153-.147.444-.384.274-.549Zm1.146-1.397c1.12.268 2.077.392 1.93 2-.051.553.419.86.84.264 1.027-1.448 2.005-2.936 2.002-5.203-.247-1.76-.748-3.801-1.954-5.512C44.9.932 39.68 4.732 35.18 6.616c-.403.17-.454.476-.094.727 1.296.906 2.575 1.842 4.235 1.864.938.014 1.868-.058 2.785-.244.714-.146.782.13.676.775-.408 2.476.709 4.376 3.032 4.933Zm3.337 10.332c1.197-1.432 1.188-1.44.107-2.865-.58-.761-.799-1.58-1.674-.524-1.884 2.275-3.824 4.492-6.676 5.473-.818.28-.653 1.367.021 1.532.429.223.896.255 1.37.25 2.872-.127 5.025-1.679 6.852-3.866Zm7.631 1.006c.02-.56-.244-.788-.687-1.008-2.819-1.394-5.82-3.93-7.614-6.785-.178.542.057.803.198 1.072 1.732 3.236 4.27 5.556 7.387 7.224.547.295.705.087.716-.503Zm5.5 5.043c.197-4.448-.026-8.906.197-13.359.042-.802-.25-1.218-1.076-1.184-1.025.044-2.055.029-3.08 0-.65-.018-.908.294-.884.943.04 1.177.094 2.355.11 3.532.037 3.637-.038 7.272.184 10.904v.59c-.01 4.552.056 9.103.169 13.653.028.938.344 1.216 1.183 1.11 1.672-.213 2.867.26 2.914-.87.04-.882.104-1.765.13-2.647.133-4.222-.036-8.447.153-12.672Zm1.544-4.524c3.196-1.613 5.978-3.705 7.515-7.231.162-.363.418-.72.275-1.192-.358.113-.404.437-.54.677-1.625 2.823-3.76 5.006-6.826 6.027-.755.256-1.467.585-1.065 1.64.127.34.417.192.64.08Zm3.775 4.487c-1.062-.887-1.84-2.007-2.491-3.247-.378-.711-1.635-.06-1 .738.667.836 2.244 2.83 3.316 3.016.326.057.4-.318.175-.507Zm2.226-.954c-1.046-1.102-2.192-2.108-2.87-3.54-.29-.608-1.11-.052-.841.584.357.843.827 1.607 1.489 2.212.665.606 1.35 1.218 2.41 1.15-.084-.19-.11-.325-.188-.406Zm-1.76-4.302c.909 1.7 2.7 3.597 4.496 3.978.725.155 1.062-.633.366-1.02-1.587-.873-2.724-2.23-3.717-3.752-.213-.325-.428-.558-.828-.27-.384.274-.574.59-.317 1.064Zm6.52 9.387c.3-.03.7.123.855-.213.17-.37-.246-.545-.442-.773-.637-.755-1.436-1.365-1.944-2.24-.418-.72-.944-.782-1.581-.396-1.443.877-2.485-.2-2.665.628-.213.975 1.124 1.293 1.617 1.412 2.448.59 1.678 1.83 4.16 1.582Zm3.249 1.667c-1.51-.434-3.047-.653-4.607-.582-1.855.089-.931-1.302-3.618-1.627-1.888-.227-3.374.654-4.768 1.825-.941.79-.97 3.36 1.531 3.81 4.678.842 5.1-1.464 7.572-.864 2.194.536 2.932 2.24 1.834 4.333-.689 1.316-1.777 2.155-2.97 2.895-1.242.772-2.627 1.13-4.22 1.46 1.193.954 3.271 1.035 4.95 2.367 1.317 1.045 2.28.401 3.427-.398 2.36-1.661 4.323-3.593 4.744-6.792.418-3.168-.988-5.595-3.875-6.427Zm-9.737-1.051c1.439 0 1.439.94 0 .94-1.438 0-1.438-.94 0-.94Zm12.439-3.82c-1.304-1.031-2.583-2.17-4.407-1.925l-.819-.16c-.44-.093-.904-.372-1.208.277-.27.576-.063.987.305 1.4 1.434 1.595 2.91 3.148 4.681 4.318 1.945 1.285 5.353 3.184 7.642 1.693.384-.25.714-.58.728-1.072.025-.562-.485-.621-.833-.78-2.173-.988-4.196-2.249-6.09-3.751Zm-2.616-3.08c2.146-.129 2.036-1.58 1.021-1.913-2.66-.878-4.595-2.756-6.283-5.006-1.329-1.771-1.158-.582-2.418.832-.369.416-.314.796-.017 1.225.797 1.145 1.769 2.108 2.842 2.953 1.399 1.1 2.968 1.756 4.855 1.909Zm16.897 3.185c-2.882-.496-6.98-2.987-9.438-4.587-.854-.556-1.588-.679-2.602-.494-1.231.227-2.092.487-2.419 1.95-.147.648-.221 1.001.332 1.37 3.667 2.44 7.26 5.588 11.75 5.228l2.163-.734c.89-.552 1.704-2.477.214-2.733Zm-8.803-7.304c-.336.07-.84-.16-.934.39-.092.513.38.707.702.933 1.576 1.116 3.277 1.996 5.007 2.806 2.189 1.027 4.448 1.835 6.918 2.094 1.547-.12 3.082-.453 4.23-1.797.765-.897.666-1.217-.437-1.432-4.042-.795-7.938-2.096-11.715-3.795-1.427-.643-1.455.302-3.77.8h-.001Zm-2.515-.527c-3.511-1.537-6.282-4.148-8.997-6.837-1.114-1.1-1.19-1.09-1.656.433-.233.77-.62 1.503.022 2.29 1.361 1.664 2.775 3.263 4.487 4.533 1.235.917 2.622 1.31 4.277 1.298 2.456.018 2.894-1.264 1.867-1.717Zm4.787-3.434c-3.636-1.098-6.78-3.218-9.874-5.405-.905-.64-1.53-.663-2.386.022-.696.557-.703.916-.11 1.519a35.337 35.337 0 0 0 7.147 5.623c1.537.918 4.425 1.387 5.642-.468.41-.625.363-1.054-.42-1.291Zm.404-1.514c2.337.946 4.556.018 6.416-1.267.272-.186.683-.42.593-.805-.097-.407-.635-.382-1.13-.466-4.933-.838-9.908-2.544-14.005-5.806-.591-.472-1.465-.845-1.923-.204-.437.613-.48 1.603-.53 2.44-.037.583.586.81.996 1.07 3.063 1.959 6.24 3.68 9.583 5.038Zm15.19 2.673c-3.146-.195-6.22-.837-9.282-1.558-1.615-.38-1.255.278-3.62.603-.53.076-.99.188-1.08.85-.104.765.522.803.95.964 3.048 1.148 10.681 3.697 13.875 3.773 2.514.013 4.614-.855 5.999-3.2.605-1.027.452-1.3-.693-1.326-2.053-.044-4.101.02-6.149-.106Zm-1.073-8.36c-2.016-.174-1.582 1.832-3.701 2.594-1.612.578-2.006 1.148-2.918 2.381-.204.271-.691.415-.58.808.117.427.612.37.959.433 5.149.927 10.711 1.354 15.947 1.183 3.2-.108 5.688-1.462 7.177-4.566.549-1.15.415-1.368-.837-1.468l-16.047-1.364ZM83.511 11.01c2.55 1.375 5.173 2.57 7.888 3.54 1.421.508 2.875.835 4.454.915 1.561-.2 3.243-.286 4.461-1.705.58-.677.522-.992-.285-1.254-4.222-1.367-8.411-2.832-12.525-4.52-1.172-.481-1.153.686-3.977 1.982-.245.112-.617.134-.615.501 0 .348.357.413.599.541Z" fill="#CC8E1E"/></svg>