<svg width="40" height="41" fill="none" xmlns="http://www.w3.org/2000/svg"><rect y=".656" width="40" height="40" rx="20" fill="#CC8E1E" fill-opacity=".1"/><path d="M20 20.656c1.16 0 2.273-.448 3.094-1.245a4.19 4.19 0 0 0 1.281-3.005 4.19 4.19 0 0 0-1.281-3.005A4.441 4.441 0 0 0 20 12.156c-1.16 0-2.273.448-3.094 1.245a4.19 4.19 0 0 0-1.281 3.005 4.19 4.19 0 0 0 1.281 3.005A4.441 4.441 0 0 0 20 20.656Zm-5.313 1.214a2.22 2.22 0 0 0-1.546.623c-.41.398-.641.939-.641 1.502v.304c0 1.453.952 2.682 2.303 3.517 1.359.84 3.198 1.34 5.197 1.34s3.837-.5 5.197-1.34c1.351-.835 2.303-2.064 2.303-3.517v-.304c0-.563-.23-1.104-.64-1.502a2.22 2.22 0 0 0-1.547-.623H14.688Z" fill="#CC8E1E"/></svg>