<svg width="69" height="19" fill="none" xmlns="http://www.w3.org/2000/svg"><path d="M17.699 18.576a8.97 8.97 0 1 1 8.969-8.972v.001a8.98 8.98 0 0 1-8.97 8.97Z" fill="#FFBA46"/><path d="M8.97 18.576a8.97 8.97 0 1 1 8.971-8.971 8.98 8.98 0 0 1-8.97 8.97Z" fill="#E50B18"/><path d="M61.056 5.853a5.54 5.54 0 0 0-1.935-.335c-2.133 0-3.64 1.075-3.65 2.618-.014 1.133 1.07 1.772 1.89 2.15.842.39 1.123.635 1.12.983-.005.53-.672.77-1.292.77-.852 0-1.317-.12-2.033-.417l-.265-.124-.303 1.776c.518.216 1.453.402 2.419.418 2.268 0 3.75-1.068 3.768-2.71.018-.905-.569-1.589-1.803-2.154-.75-.367-1.216-.612-1.216-.984 0-.33.398-.682 1.232-.682a3.935 3.935 0 0 1 1.617.306l.2.089.303-1.716-.052.012Zm5.536-.19h-1.667c-.519 0-.91.142-1.136.657l-3.205 7.261h2.268l.453-1.19 2.768.002c.066.279.266 1.188.266 1.188h2l-1.747-7.919Zm-14.19-.067h2.162l-1.352 7.922h-2.159l1.35-7.925v.003Zm-5.486 4.366.224 1.1 2.112-5.4h2.29L48.14 13.57h-2.284l-1.867-6.696a.452.452 0 0 0-.198-.265 9.265 9.265 0 0 0-2.123-.785l.03-.167h3.478c.472.019.852.167.978.67l.76 3.64v-.005h.002Zm17.01.808.86-2.216c-.01.024.178-.457.287-.754l.148.684.5 2.285h-1.797v.001h.001Z" fill="#8099F7"/></svg>